<?xml version="1.0" encoding="UTF-8" standalone="no"?>
<svg
   xmlns:dc="http://purl.org/dc/elements/1.1/"
   xmlns:cc="http://creativecommons.org/ns#"
   xmlns:rdf="http://www.w3.org/1999/02/22-rdf-syntax-ns#"
   xmlns:svg="http://www.w3.org/2000/svg"
   xmlns="http://www.w3.org/2000/svg"
   xmlns:sodipodi="http://sodipodi.sourceforge.net/DTD/sodipodi-0.dtd"
   xmlns:inkscape="http://www.inkscape.org/namespaces/inkscape"
   version="1.1"
   x="0px"
   y="0px"
   viewBox="0 0 44.068001 44.068001"
   enable-background="new 0 0 50 50"
   xml:space="preserve"
   id="svg2"
   inkscape:version="0.91 r13725"
   sodipodi:docname="icon.svg"
   width="18"
   height="18"><metadata
     id="metadata18"><rdf:RDF><cc:Work
         rdf:about=""><dc:format>image/svg+xml</dc:format><dc:type
           rdf:resource="http://purl.org/dc/dcmitype/StillImage" /><dc:title></dc:title></cc:Work></rdf:RDF></metadata><defs
     id="defs16" /><sodipodi:namedview
     pagecolor="#ffffff"
     bordercolor="#666666"
     borderopacity="1"
     objecttolerance="10"
     gridtolerance="10"
     guidetolerance="10"
     inkscape:pageopacity="0"
     inkscape:pageshadow="2"
     inkscape:window-width="1681"
     inkscape:window-height="616"
     id="namedview14"
     showgrid="false"
     inkscape:zoom="3.776"
     inkscape:cx="-52.373127"
     inkscape:cy="15.284"
     inkscape:window-x="1920"
     inkscape:window-y="202"
     inkscape:window-maximized="0"
     inkscape:current-layer="svg2"
     fit-margin-top="0"
     fit-margin-left="0"
     fit-margin-right="0"
     fit-margin-bottom="0" /><g
     id="g4"
     transform="translate(-3.353,-2.466)"><path
       d="m 24.394,12.793 c -0.683,-0.686 -1.396,-1.031 -2.117,-1.031 -1.109,0 -2.231,0.876 -2.231,2.832 l 0,19.451 c 0,1.956 1.118,2.831 2.231,2.831 0.721,0 1.434,-0.345 2.117,-1.031 l 8.573,-8.573 c 0.786,-0.785 1.221,-1.835 1.221,-2.954 0,-1.12 -0.435,-2.168 -1.221,-2.958 l -8.573,-8.567 z m 6.603,12.512 -8.162,8.165 0,-18.296 8.162,8.161 c 0.259,0.262 0.405,0.61 0.405,0.988 0,0.376 -0.146,0.721 -0.405,0.982 z"
       id="path6"
       inkscape:connector-curvature="0"
       style="fill:#000000" /><path
       d="M 25.387,2.466 C 13.236,2.466 3.353,12.35 3.353,24.5 c 0,12.151 9.883,22.034 22.034,22.034 12.151,0 22.034,-9.883 22.034,-22.034 0,-12.15 -9.883,-22.034 -22.034,-22.034 z m 0,41.285 c -10.616,0 -19.248,-8.635 -19.248,-19.248 0,-10.61 8.634,-19.249 19.248,-19.249 10.611,0 19.249,8.638 19.249,19.249 0,10.613 -8.636,19.248 -19.249,19.248 z"
       id="path8"
       inkscape:connector-curvature="0"
       style="fill:#000000" /></g></svg>